<svg xmlns="http://www.w3.org/2000/svg" width="52" height="52" viewBox="0 0 52 52">
    <g fill="none" fill-rule="nonzero" transform="translate(1 1)">
        <circle cx="25" cy="25" r="25" stroke="#FFF" stroke-width="1.5"/>
        <path fill="#FFF" stroke="#002538" stroke-width=".6" d="M34.764 15a1.294 1.294 0 0 0-.128.018c-.434.057-.8.342-.947.736-.147.395-.05.834.248 1.14 2.043 2.182 3.29 5.053 3.29 8.226 0 3.167-1.238 6.057-3.29 8.242-.326.29-.452.732-.326 1.14.126.408.483.713.921.787.44.075.885-.094 1.151-.436 2.424-2.582 3.897-6.002 3.897-9.733 0-3.732-1.466-7.138-3.878-9.716a1.204 1.204 0 0 0-.938-.404zm-19.096.005c-.305.024-.59.164-.79.386-2.412 2.582-3.878 6-3.878 9.722 0 3.742 1.473 7.158 3.896 9.74.267.342.712.51 1.151.436.44-.074.795-.38.922-.787a1.09 1.09 0 0 0-.327-1.141c-2.051-2.185-3.29-5.067-3.29-8.248 0-3.161 1.248-6.046 3.29-8.23.329-.343.402-.843.186-1.258a1.184 1.184 0 0 0-1.16-.62zm15.371 4.508a1.4 1.4 0 0 0-.134.018c-.453.057-.834.343-.987.738-.153.396-.052.836.259 1.144 1.051 1.09 1.686 2.513 1.686 4.099 0 1.574-.637 3.004-1.686 4.099a1.06 1.06 0 0 0-.319 1.143c.137.405.51.706.965.776a1.28 1.28 0 0 0 1.193-.442c1.427-1.488 2.299-3.443 2.299-5.576 0-2.144-.865-4.108-2.299-5.594a1.278 1.278 0 0 0-.977-.405zm-11.658.004a1.27 1.27 0 0 0-.827.389c-1.426 1.492-2.29 3.464-2.29 5.598 0 2.175.898 4.17 2.367 5.67.457.463 1.236.499 1.74.08.506-.42.544-1.135.087-1.6-1.077-1.099-1.731-2.54-1.731-4.15 0-1.576.625-3 1.674-4.097.343-.344.42-.848.194-1.265-.223-.42-.707-.667-1.214-.625zm5.909 3.004a3.011 3.011 0 0 0-3.009 3.008c0 1.66 1.35 3.009 3.009 3.009 1.66 0 3.008-1.35 3.008-3.009 0-1.659-1.349-3.008-3.008-3.008z"/>
    </g>
</svg>
