<?xml version="1.0" encoding="UTF-8" standalone="no"?>
<!DOCTYPE svg PUBLIC "-//W3C//DTD SVG 1.1//EN"
 "http://www.w3.org/Graphics/SVG/1.1/DTD/svg11.dtd">
<!-- Generated by graphviz version 2.40.1 (20161225.0304)
 -->
<!-- Title: dependencies Pages: 1 -->
<svg width="1112pt" height="284pt"
 viewBox="0.00 0.00 1112.00 284.00" xmlns="http://www.w3.org/2000/svg" xmlns:xlink="http://www.w3.org/1999/xlink">
<g id="graph0" class="graph" transform="scale(1 1) rotate(0) translate(4 280)">
<title>dependencies</title>
<polygon fill="#ffffff" stroke="transparent" points="-4,4 -4,-280 1108,-280 1108,4 -4,4"/>
<text text-anchor="start" x="531.0091" y="-42.4" font-family="sans-serif" font-weight="bold" font-size="14.00" fill="#000000">Legend</text>
<polygon fill="#ffffb3" stroke="transparent" points="318,-10 318,-30 338,-30 338,-10 318,-10"/>
<text text-anchor="start" x="341.629" y="-15.4" font-family="sans-serif" font-size="14.00" fill="#000000"> &#160;Declarations</text>
<polygon fill="#8dd3c7" stroke="transparent" points="431,-10 431,-30 451,-30 451,-10 431,-10"/>
<text text-anchor="start" x="454.7251" y="-15.4" font-family="sans-serif" font-size="14.00" fill="#000000"> &#160;Module</text>
<polygon fill="#80b1d3" stroke="transparent" points="517,-10 517,-30 537,-30 537,-10 517,-10"/>
<text text-anchor="start" x="540.7812" y="-15.4" font-family="sans-serif" font-size="14.00" fill="#000000"> &#160;Bootstrap</text>
<polygon fill="#fdb462" stroke="transparent" points="614,-10 614,-30 634,-30 634,-10 614,-10"/>
<text text-anchor="start" x="637.6732" y="-15.4" font-family="sans-serif" font-size="14.00" fill="#000000"> &#160;Providers</text>
<polygon fill="#fb8072" stroke="transparent" points="710,-10 710,-30 730,-30 730,-10 710,-10"/>
<text text-anchor="start" x="733.7258" y="-15.4" font-family="sans-serif" font-size="14.00" fill="#000000"> &#160;Exports</text>
<g id="clust1" class="cluster">
<title>cluster_LocationDetailsModule</title>
<polygon fill="none" stroke="#000000" stroke-dasharray="1,5" points="8,-70 8,-268 1096,-268 1096,-70 8,-70"/>
</g>
<g id="clust2" class="cluster">
<title>cluster_LocationDetailsModule_declarations</title>
<polygon fill="none" stroke="#000000" points="620,-78 620,-130 1088,-130 1088,-78 620,-78"/>
</g>
<g id="clust6" class="cluster">
<title>cluster_LocationDetailsModule_imports</title>
<polygon fill="none" stroke="#000000" points="16,-78 16,-130 612,-130 612,-78 16,-78"/>
</g>
<g id="clust7" class="cluster">
<title>cluster_LocationDetailsModule_exports</title>
<polygon fill="none" stroke="#000000" points="403,-208 403,-260 593,-260 593,-208 403,-208"/>
</g>
<!-- LocationDetailsComponent -->
<g id="node1" class="node">
<title>LocationDetailsComponent</title>
<polygon fill="#ffffb3" stroke="#000000" points="1080.2478,-122 909.7522,-122 909.7522,-86 1080.2478,-86 1080.2478,-122"/>
<text text-anchor="middle" x="995" y="-99.8" font-family="Times,serif" font-size="14.00" fill="#000000">LocationDetailsComponent</text>
</g>
<!-- LocationDetailsModule -->
<g id="node4" class="node">
<title>LocationDetailsModule</title>
<polygon fill="#8dd3c7" stroke="#000000" points="572.465,-187 569.465,-191 548.465,-191 545.465,-187 423.535,-187 423.535,-151 572.465,-151 572.465,-187"/>
<text text-anchor="middle" x="498" y="-164.8" font-family="Times,serif" font-size="14.00" fill="#000000">LocationDetailsModule</text>
</g>
<!-- LocationDetailsComponent&#45;&gt;LocationDetailsModule -->
<g id="edge1" class="edge">
<title>LocationDetailsComponent&#45;&gt;LocationDetailsModule</title>
<path fill="none" stroke="#000000" d="M995,-122.2921C995,-144.2057 995,-178 995,-178 995,-178 582.6748,-178 582.6748,-178"/>
<polygon fill="#000000" stroke="#000000" points="582.6748,-174.5001 572.6748,-178 582.6748,-181.5001 582.6748,-174.5001"/>
</g>
<!-- OverviewComponent -->
<g id="node2" class="node">
<title>OverviewComponent</title>
<polygon fill="#ffffb3" stroke="#000000" points="891.0268,-122 754.9732,-122 754.9732,-86 891.0268,-86 891.0268,-122"/>
<text text-anchor="middle" x="823" y="-99.8" font-family="Times,serif" font-size="14.00" fill="#000000">OverviewComponent</text>
</g>
<!-- OverviewComponent&#45;&gt;LocationDetailsModule -->
<g id="edge2" class="edge">
<title>OverviewComponent&#45;&gt;LocationDetailsModule</title>
<path fill="none" stroke="#000000" d="M823,-122.1061C823,-141.3391 823,-169 823,-169 823,-169 582.5616,-169 582.5616,-169"/>
<polygon fill="#000000" stroke="#000000" points="582.5616,-165.5001 572.5616,-169 582.5615,-172.5001 582.5616,-165.5001"/>
</g>
<!-- StaffComponent -->
<g id="node3" class="node">
<title>StaffComponent</title>
<polygon fill="#ffffb3" stroke="#000000" points="736.0424,-122 627.9576,-122 627.9576,-86 736.0424,-86 736.0424,-122"/>
<text text-anchor="middle" x="682" y="-99.8" font-family="Times,serif" font-size="14.00" fill="#000000">StaffComponent</text>
</g>
<!-- StaffComponent&#45;&gt;LocationDetailsModule -->
<g id="edge3" class="edge">
<title>StaffComponent&#45;&gt;LocationDetailsModule</title>
<path fill="none" stroke="#000000" d="M682,-122.027C682,-138.3976 682,-160 682,-160 682,-160 582.5746,-160 582.5746,-160"/>
<polygon fill="#000000" stroke="#000000" points="582.5746,-156.5001 572.5746,-160 582.5746,-163.5001 582.5746,-156.5001"/>
</g>
<!-- LocationDetailsComponent  -->
<g id="node10" class="node">
<title>LocationDetailsComponent </title>
<polygon fill="#fb8072" stroke="#000000" points="585.2478,-252 410.7522,-252 410.7522,-216 585.2478,-216 585.2478,-252"/>
<text text-anchor="middle" x="498" y="-229.8" font-family="Times,serif" font-size="14.00" fill="#000000">LocationDetailsComponent </text>
</g>
<!-- LocationDetailsModule&#45;&gt;LocationDetailsComponent  -->
<g id="edge9" class="edge">
<title>LocationDetailsModule&#45;&gt;LocationDetailsComponent </title>
<path fill="none" stroke="#000000" stroke-dasharray="5,2" d="M498,-187.1061C498,-187.1061 498,-205.991 498,-205.991"/>
<polygon fill="#000000" stroke="#000000" points="494.5001,-205.9909 498,-215.991 501.5001,-205.991 494.5001,-205.9909"/>
</g>
<!-- ErrorsModule -->
<g id="node5" class="node">
<title>ErrorsModule</title>
<polygon fill="#8dd3c7" stroke="#000000" points="604.03,-122 601.03,-126 580.03,-126 577.03,-122 509.97,-122 509.97,-86 604.03,-86 604.03,-122"/>
<text text-anchor="middle" x="557" y="-99.8" font-family="Times,serif" font-size="14.00" fill="#000000">ErrorsModule</text>
</g>
<!-- ErrorsModule&#45;&gt;LocationDetailsModule -->
<g id="edge4" class="edge">
<title>ErrorsModule&#45;&gt;LocationDetailsModule</title>
<path fill="none" stroke="#000000" d="M541.1091,-122.1061C541.1091,-122.1061 541.1091,-140.991 541.1091,-140.991"/>
<polygon fill="#000000" stroke="#000000" points="537.6091,-140.9909 541.1091,-150.991 544.6091,-140.991 537.6091,-140.9909"/>
</g>
<!-- ReportsModule -->
<g id="node6" class="node">
<title>ReportsModule</title>
<polygon fill="#8dd3c7" stroke="#000000" points="491.5968,-122 488.5968,-126 467.5968,-126 464.5968,-122 388.4032,-122 388.4032,-86 491.5968,-86 491.5968,-122"/>
<text text-anchor="middle" x="440" y="-99.8" font-family="Times,serif" font-size="14.00" fill="#000000">ReportsModule</text>
</g>
<!-- ReportsModule&#45;&gt;LocationDetailsModule -->
<g id="edge5" class="edge">
<title>ReportsModule&#45;&gt;LocationDetailsModule</title>
<path fill="none" stroke="#000000" d="M457.533,-122.1061C457.533,-122.1061 457.533,-140.991 457.533,-140.991"/>
<polygon fill="#000000" stroke="#000000" points="454.033,-140.9909 457.533,-150.991 461.033,-140.991 454.033,-140.9909"/>
</g>
<!-- ServicesModule -->
<g id="node7" class="node">
<title>ServicesModule</title>
<polygon fill="#8dd3c7" stroke="#000000" points="370.472,-122 367.472,-126 346.472,-126 343.472,-122 263.528,-122 263.528,-86 370.472,-86 370.472,-122"/>
<text text-anchor="middle" x="317" y="-99.8" font-family="Times,serif" font-size="14.00" fill="#000000">ServicesModule</text>
</g>
<!-- ServicesModule&#45;&gt;LocationDetailsModule -->
<g id="edge6" class="edge">
<title>ServicesModule&#45;&gt;LocationDetailsModule</title>
<path fill="none" stroke="#000000" d="M317,-122.027C317,-138.3976 317,-160 317,-160 317,-160 413.3354,-160 413.3354,-160"/>
<polygon fill="#000000" stroke="#000000" points="413.3354,-163.5001 423.3354,-160 413.3353,-156.5001 413.3354,-163.5001"/>
</g>
<!-- SharedModule -->
<g id="node8" class="node">
<title>SharedModule</title>
<polygon fill="#8dd3c7" stroke="#000000" points="245.4231,-122 242.4231,-126 221.4231,-126 218.4231,-122 146.5769,-122 146.5769,-86 245.4231,-86 245.4231,-122"/>
<text text-anchor="middle" x="196" y="-99.8" font-family="Times,serif" font-size="14.00" fill="#000000">SharedModule</text>
</g>
<!-- SharedModule&#45;&gt;LocationDetailsModule -->
<g id="edge7" class="edge">
<title>SharedModule&#45;&gt;LocationDetailsModule</title>
<path fill="none" stroke="#000000" d="M196,-122.1061C196,-141.3391 196,-169 196,-169 196,-169 413.3483,-169 413.3483,-169"/>
<polygon fill="#000000" stroke="#000000" points="413.3483,-172.5001 423.3483,-169 413.3483,-165.5001 413.3483,-172.5001"/>
</g>
<!-- SidenavModule -->
<g id="node9" class="node">
<title>SidenavModule</title>
<polygon fill="#8dd3c7" stroke="#000000" points="128.1528,-122 125.1528,-126 104.1528,-126 101.1528,-122 23.8472,-122 23.8472,-86 128.1528,-86 128.1528,-122"/>
<text text-anchor="middle" x="76" y="-99.8" font-family="Times,serif" font-size="14.00" fill="#000000">SidenavModule</text>
</g>
<!-- SidenavModule&#45;&gt;LocationDetailsModule -->
<g id="edge8" class="edge">
<title>SidenavModule&#45;&gt;LocationDetailsModule</title>
<path fill="none" stroke="#000000" d="M76,-122.2921C76,-144.2057 76,-178 76,-178 76,-178 413.5263,-178 413.5263,-178"/>
<polygon fill="#000000" stroke="#000000" points="413.5263,-181.5001 423.5263,-178 413.5262,-174.5001 413.5263,-181.5001"/>
</g>
</g>
</svg>
