<?xml version="1.0" encoding="UTF-8" standalone="no"?>
<!DOCTYPE svg PUBLIC "-//W3C//DTD SVG 1.1//EN"
 "http://www.w3.org/Graphics/SVG/1.1/DTD/svg11.dtd">
<!-- Generated by graphviz version 2.40.1 (20161225.0304)
 -->
<!-- Title: dependencies Pages: 1 -->
<svg width="802pt" height="211pt"
 viewBox="0.00 0.00 802.00 211.00" xmlns="http://www.w3.org/2000/svg" xmlns:xlink="http://www.w3.org/1999/xlink">
<g id="graph0" class="graph" transform="scale(1 1) rotate(0) translate(4 207)">
<title>dependencies</title>
<polygon fill="#ffffff" stroke="transparent" points="-4,4 -4,-207 798,-207 798,4 -4,4"/>
<text text-anchor="start" x="376.0091" y="-42.4" font-family="sans-serif" font-weight="bold" font-size="14.00" fill="#000000">Legend</text>
<polygon fill="#ffffb3" stroke="transparent" points="163,-10 163,-30 183,-30 183,-10 163,-10"/>
<text text-anchor="start" x="186.629" y="-15.4" font-family="sans-serif" font-size="14.00" fill="#000000"> &#160;Declarations</text>
<polygon fill="#8dd3c7" stroke="transparent" points="276,-10 276,-30 296,-30 296,-10 276,-10"/>
<text text-anchor="start" x="299.7251" y="-15.4" font-family="sans-serif" font-size="14.00" fill="#000000"> &#160;Module</text>
<polygon fill="#80b1d3" stroke="transparent" points="362,-10 362,-30 382,-30 382,-10 362,-10"/>
<text text-anchor="start" x="385.7812" y="-15.4" font-family="sans-serif" font-size="14.00" fill="#000000"> &#160;Bootstrap</text>
<polygon fill="#fdb462" stroke="transparent" points="459,-10 459,-30 479,-30 479,-10 459,-10"/>
<text text-anchor="start" x="482.6732" y="-15.4" font-family="sans-serif" font-size="14.00" fill="#000000"> &#160;Providers</text>
<polygon fill="#fb8072" stroke="transparent" points="555,-10 555,-30 575,-30 575,-10 555,-10"/>
<text text-anchor="start" x="578.7258" y="-15.4" font-family="sans-serif" font-size="14.00" fill="#000000"> &#160;Exports</text>
<g id="clust1" class="cluster">
<title>cluster_ServicesModule</title>
<polygon fill="none" stroke="#000000" stroke-dasharray="1,5" points="8,-70 8,-195 786,-195 786,-70 8,-70"/>
</g>
<g id="clust6" class="cluster">
<title>cluster_ServicesModule_providers</title>
<polygon fill="none" stroke="#000000" points="16,-78 16,-130 778,-130 778,-78 16,-78"/>
</g>
<!-- AuthInterceptor -->
<g id="node1" class="node">
<title>AuthInterceptor</title>
<ellipse fill="#fdb462" stroke="#000000" cx="697" cy="-104" rx="72.9121" ry="18"/>
<text text-anchor="middle" x="697" y="-99.8" font-family="Times,serif" font-size="14.00" fill="#000000">AuthInterceptor</text>
</g>
<!-- ServicesModule -->
<g id="node6" class="node">
<title>ServicesModule</title>
<polygon fill="#8dd3c7" stroke="#000000" points="431.472,-187 428.472,-191 407.472,-191 404.472,-187 324.528,-187 324.528,-151 431.472,-151 431.472,-187"/>
<text text-anchor="middle" x="378" y="-164.8" font-family="Times,serif" font-size="14.00" fill="#000000">ServicesModule</text>
</g>
<!-- AuthInterceptor&#45;&gt;ServicesModule -->
<g id="edge1" class="edge">
<title>AuthInterceptor&#45;&gt;ServicesModule</title>
<path fill="none" stroke="#000000" d="M697,-122.2843C697,-143.3211 697,-175 697,-175 697,-175 441.7533,-175 441.7533,-175"/>
<polygon fill="#000000" stroke="#000000" points="441.7533,-171.5001 431.7533,-175 441.7532,-178.5001 441.7533,-171.5001"/>
</g>
<!-- AuthService -->
<g id="node2" class="node">
<title>AuthService</title>
<ellipse fill="#fdb462" stroke="#000000" cx="547" cy="-104" rx="59.1083" ry="18"/>
<text text-anchor="middle" x="547" y="-99.8" font-family="Times,serif" font-size="14.00" fill="#000000">AuthService</text>
</g>
<!-- AuthService&#45;&gt;ServicesModule -->
<g id="edge2" class="edge">
<title>AuthService&#45;&gt;ServicesModule</title>
<path fill="none" stroke="#000000" d="M547,-122.0225C547,-139.3734 547,-163 547,-163 547,-163 441.4727,-163 441.4727,-163"/>
<polygon fill="#000000" stroke="#000000" points="441.4727,-159.5001 431.4727,-163 441.4726,-166.5001 441.4727,-159.5001"/>
</g>
<!-- PeopleFinderService -->
<g id="node3" class="node">
<title>PeopleFinderService</title>
<ellipse fill="#fdb462" stroke="#000000" cx="378" cy="-104" rx="91.4693" ry="18"/>
<text text-anchor="middle" x="378" y="-99.8" font-family="Times,serif" font-size="14.00" fill="#000000">PeopleFinderService</text>
</g>
<!-- PeopleFinderService&#45;&gt;ServicesModule -->
<g id="edge3" class="edge">
<title>PeopleFinderService&#45;&gt;ServicesModule</title>
<path fill="none" stroke="#000000" d="M378,-122.1061C378,-122.1061 378,-140.991 378,-140.991"/>
<polygon fill="#000000" stroke="#000000" points="374.5001,-140.9909 378,-150.991 381.5001,-140.991 374.5001,-140.9909"/>
</g>
<!-- ReportsService -->
<g id="node4" class="node">
<title>ReportsService</title>
<ellipse fill="#fdb462" stroke="#000000" cx="198" cy="-104" rx="70.0596" ry="18"/>
<text text-anchor="middle" x="198" y="-99.8" font-family="Times,serif" font-size="14.00" fill="#000000">ReportsService</text>
</g>
<!-- ReportsService&#45;&gt;ServicesModule -->
<g id="edge4" class="edge">
<title>ReportsService&#45;&gt;ServicesModule</title>
<path fill="none" stroke="#000000" d="M198,-122.0225C198,-139.3734 198,-163 198,-163 198,-163 314.4814,-163 314.4814,-163"/>
<polygon fill="#000000" stroke="#000000" points="314.4814,-166.5001 324.4814,-163 314.4814,-159.5001 314.4814,-166.5001"/>
</g>
<!-- RestApi -->
<g id="node5" class="node">
<title>RestApi</title>
<ellipse fill="#fdb462" stroke="#000000" cx="67" cy="-104" rx="42.8732" ry="18"/>
<text text-anchor="middle" x="67" y="-99.8" font-family="Times,serif" font-size="14.00" fill="#000000">RestApi</text>
</g>
<!-- RestApi&#45;&gt;ServicesModule -->
<g id="edge5" class="edge">
<title>RestApi&#45;&gt;ServicesModule</title>
<path fill="none" stroke="#000000" d="M67,-122.2843C67,-143.3211 67,-175 67,-175 67,-175 314.183,-175 314.183,-175"/>
<polygon fill="#000000" stroke="#000000" points="314.183,-178.5001 324.183,-175 314.1829,-171.5001 314.183,-178.5001"/>
</g>
</g>
</svg>
