<?xml version="1.0" encoding="UTF-8" standalone="no"?>
<!DOCTYPE svg PUBLIC "-//W3C//DTD SVG 1.1//EN"
 "http://www.w3.org/Graphics/SVG/1.1/DTD/svg11.dtd">
<!-- Generated by graphviz version 2.40.1 (20161225.0304)
 -->
<!-- Title: dependencies Pages: 1 -->
<svg width="681pt" height="284pt"
 viewBox="0.00 0.00 681.00 284.00" xmlns="http://www.w3.org/2000/svg" xmlns:xlink="http://www.w3.org/1999/xlink">
<g id="graph0" class="graph" transform="scale(1 1) rotate(0) translate(4 280)">
<title>dependencies</title>
<polygon fill="#ffffff" stroke="transparent" points="-4,4 -4,-280 677,-280 677,4 -4,4"/>
<text text-anchor="start" x="315.5091" y="-42.4" font-family="sans-serif" font-weight="bold" font-size="14.00" fill="#000000">Legend</text>
<polygon fill="#ffffb3" stroke="transparent" points="102.5,-10 102.5,-30 122.5,-30 122.5,-10 102.5,-10"/>
<text text-anchor="start" x="126.129" y="-15.4" font-family="sans-serif" font-size="14.00" fill="#000000"> &#160;Declarations</text>
<polygon fill="#8dd3c7" stroke="transparent" points="215.5,-10 215.5,-30 235.5,-30 235.5,-10 215.5,-10"/>
<text text-anchor="start" x="239.2251" y="-15.4" font-family="sans-serif" font-size="14.00" fill="#000000"> &#160;Module</text>
<polygon fill="#80b1d3" stroke="transparent" points="301.5,-10 301.5,-30 321.5,-30 321.5,-10 301.5,-10"/>
<text text-anchor="start" x="325.2812" y="-15.4" font-family="sans-serif" font-size="14.00" fill="#000000"> &#160;Bootstrap</text>
<polygon fill="#fdb462" stroke="transparent" points="398.5,-10 398.5,-30 418.5,-30 418.5,-10 398.5,-10"/>
<text text-anchor="start" x="422.1732" y="-15.4" font-family="sans-serif" font-size="14.00" fill="#000000"> &#160;Providers</text>
<polygon fill="#fb8072" stroke="transparent" points="494.5,-10 494.5,-30 514.5,-30 514.5,-10 494.5,-10"/>
<text text-anchor="start" x="518.2258" y="-15.4" font-family="sans-serif" font-size="14.00" fill="#000000"> &#160;Exports</text>
<g id="clust1" class="cluster">
<title>cluster_DashBoardModule</title>
<polygon fill="none" stroke="#000000" stroke-dasharray="1,5" points="8,-70 8,-268 665,-268 665,-70 8,-70"/>
</g>
<g id="clust2" class="cluster">
<title>cluster_DashBoardModule_declarations</title>
<polygon fill="none" stroke="#000000" points="499,-78 499,-130 657,-130 657,-78 499,-78"/>
</g>
<g id="clust4" class="cluster">
<title>cluster_DashBoardModule_imports</title>
<polygon fill="none" stroke="#000000" points="16,-78 16,-130 491,-130 491,-78 16,-78"/>
</g>
<g id="clust5" class="cluster">
<title>cluster_DashBoardModule_exports</title>
<polygon fill="none" stroke="#000000" points="295,-208 295,-260 457,-260 457,-208 295,-208"/>
</g>
<!-- DashboardComponent -->
<g id="node1" class="node">
<title>DashboardComponent</title>
<polygon fill="#ffffb3" stroke="#000000" points="648.9734,-122 507.0266,-122 507.0266,-86 648.9734,-86 648.9734,-122"/>
<text text-anchor="middle" x="578" y="-99.8" font-family="Times,serif" font-size="14.00" fill="#000000">DashboardComponent</text>
</g>
<!-- DashBoardModule -->
<g id="node2" class="node">
<title>DashBoardModule</title>
<polygon fill="#8dd3c7" stroke="#000000" points="437.0283,-187 434.0283,-191 413.0283,-191 410.0283,-187 314.9717,-187 314.9717,-151 437.0283,-151 437.0283,-187"/>
<text text-anchor="middle" x="376" y="-164.8" font-family="Times,serif" font-size="14.00" fill="#000000">DashBoardModule</text>
</g>
<!-- DashboardComponent&#45;&gt;DashBoardModule -->
<g id="edge1" class="edge">
<title>DashboardComponent&#45;&gt;DashBoardModule</title>
<path fill="none" stroke="#000000" d="M601.6622,-122.2843C601.6622,-143.3211 601.6622,-175 601.6622,-175 601.6622,-175 447.0674,-175 447.0674,-175"/>
<polygon fill="#000000" stroke="#000000" points="447.0675,-171.5001 437.0674,-175 447.0674,-178.5001 447.0675,-171.5001"/>
</g>
<!-- DashboardComponent&#45;&gt;DashBoardModule -->
<g id="edge2" class="edge">
<title>DashboardComponent&#45;&gt;DashBoardModule</title>
<path fill="none" stroke="#000000" d="M554.3378,-122.0225C554.3378,-139.3734 554.3378,-163 554.3378,-163 554.3378,-163 447.3737,-163 447.3737,-163"/>
<polygon fill="#000000" stroke="#000000" points="447.3738,-159.5001 437.3737,-163 447.3737,-166.5001 447.3738,-159.5001"/>
</g>
<!-- DashboardComponent  -->
<g id="node7" class="node">
<title>DashboardComponent </title>
<polygon fill="#fb8072" stroke="#000000" points="448.9742,-252 303.0258,-252 303.0258,-216 448.9742,-216 448.9742,-252"/>
<text text-anchor="middle" x="376" y="-229.8" font-family="Times,serif" font-size="14.00" fill="#000000">DashboardComponent </text>
</g>
<!-- DashBoardModule&#45;&gt;DashboardComponent  -->
<g id="edge7" class="edge">
<title>DashBoardModule&#45;&gt;DashboardComponent </title>
<path fill="none" stroke="#000000" stroke-dasharray="5,2" d="M376,-187.1061C376,-187.1061 376,-205.991 376,-205.991"/>
<polygon fill="#000000" stroke="#000000" points="372.5001,-205.9909 376,-215.991 379.5001,-205.991 372.5001,-205.9909"/>
</g>
<!-- ErrorsModule -->
<g id="node3" class="node">
<title>ErrorsModule</title>
<polygon fill="#8dd3c7" stroke="#000000" points="483.03,-122 480.03,-126 459.03,-126 456.03,-122 388.97,-122 388.97,-86 483.03,-86 483.03,-122"/>
<text text-anchor="middle" x="436" y="-99.8" font-family="Times,serif" font-size="14.00" fill="#000000">ErrorsModule</text>
</g>
<!-- ErrorsModule&#45;&gt;DashBoardModule -->
<g id="edge3" class="edge">
<title>ErrorsModule&#45;&gt;DashBoardModule</title>
<path fill="none" stroke="#000000" d="M412.9996,-122.1061C412.9996,-122.1061 412.9996,-140.991 412.9996,-140.991"/>
<polygon fill="#000000" stroke="#000000" points="409.4997,-140.9909 412.9996,-150.991 416.4997,-140.991 409.4997,-140.9909"/>
</g>
<!-- ServicesModule -->
<g id="node4" class="node">
<title>ServicesModule</title>
<polygon fill="#8dd3c7" stroke="#000000" points="370.472,-122 367.472,-126 346.472,-126 343.472,-122 263.528,-122 263.528,-86 370.472,-86 370.472,-122"/>
<text text-anchor="middle" x="317" y="-99.8" font-family="Times,serif" font-size="14.00" fill="#000000">ServicesModule</text>
</g>
<!-- ServicesModule&#45;&gt;DashBoardModule -->
<g id="edge4" class="edge">
<title>ServicesModule&#45;&gt;DashBoardModule</title>
<path fill="none" stroke="#000000" d="M342.6112,-122.1061C342.6112,-122.1061 342.6112,-140.991 342.6112,-140.991"/>
<polygon fill="#000000" stroke="#000000" points="339.1112,-140.9909 342.6112,-150.991 346.1112,-140.991 339.1112,-140.9909"/>
</g>
<!-- SharedModule -->
<g id="node5" class="node">
<title>SharedModule</title>
<polygon fill="#8dd3c7" stroke="#000000" points="245.4231,-122 242.4231,-126 221.4231,-126 218.4231,-122 146.5769,-122 146.5769,-86 245.4231,-86 245.4231,-122"/>
<text text-anchor="middle" x="196" y="-99.8" font-family="Times,serif" font-size="14.00" fill="#000000">SharedModule</text>
</g>
<!-- SharedModule&#45;&gt;DashBoardModule -->
<g id="edge5" class="edge">
<title>SharedModule&#45;&gt;DashBoardModule</title>
<path fill="none" stroke="#000000" d="M196,-122.0225C196,-139.3734 196,-163 196,-163 196,-163 304.809,-163 304.809,-163"/>
<polygon fill="#000000" stroke="#000000" points="304.8091,-166.5001 314.809,-163 304.809,-159.5001 304.8091,-166.5001"/>
</g>
<!-- SidenavModule -->
<g id="node6" class="node">
<title>SidenavModule</title>
<polygon fill="#8dd3c7" stroke="#000000" points="128.1528,-122 125.1528,-126 104.1528,-126 101.1528,-122 23.8472,-122 23.8472,-86 128.1528,-86 128.1528,-122"/>
<text text-anchor="middle" x="76" y="-99.8" font-family="Times,serif" font-size="14.00" fill="#000000">SidenavModule</text>
</g>
<!-- SidenavModule&#45;&gt;DashBoardModule -->
<g id="edge6" class="edge">
<title>SidenavModule&#45;&gt;DashBoardModule</title>
<path fill="none" stroke="#000000" d="M76,-122.2843C76,-143.3211 76,-175 76,-175 76,-175 304.9289,-175 304.9289,-175"/>
<polygon fill="#000000" stroke="#000000" points="304.929,-178.5001 314.9289,-175 304.9289,-171.5001 304.929,-178.5001"/>
</g>
</g>
</svg>
