<?xml version="1.0" encoding="UTF-8" standalone="no"?>
<!DOCTYPE svg PUBLIC "-//W3C//DTD SVG 1.1//EN"
 "http://www.w3.org/Graphics/SVG/1.1/DTD/svg11.dtd">
<!-- Generated by graphviz version 2.40.1 (20161225.0304)
 -->
<!-- Title: dependencies Pages: 1 -->
<svg width="504pt" height="284pt"
 viewBox="0.00 0.00 504.00 284.00" xmlns="http://www.w3.org/2000/svg" xmlns:xlink="http://www.w3.org/1999/xlink">
<g id="graph0" class="graph" transform="scale(1 1) rotate(0) translate(4 280)">
<title>dependencies</title>
<polygon fill="#ffffff" stroke="transparent" points="-4,4 -4,-280 500,-280 500,4 -4,4"/>
<text text-anchor="start" x="227.0091" y="-42.4" font-family="sans-serif" font-weight="bold" font-size="14.00" fill="#000000">Legend</text>
<polygon fill="#ffffb3" stroke="transparent" points="14,-10 14,-30 34,-30 34,-10 14,-10"/>
<text text-anchor="start" x="37.629" y="-15.4" font-family="sans-serif" font-size="14.00" fill="#000000"> &#160;Declarations</text>
<polygon fill="#8dd3c7" stroke="transparent" points="127,-10 127,-30 147,-30 147,-10 127,-10"/>
<text text-anchor="start" x="150.7251" y="-15.4" font-family="sans-serif" font-size="14.00" fill="#000000"> &#160;Module</text>
<polygon fill="#80b1d3" stroke="transparent" points="213,-10 213,-30 233,-30 233,-10 213,-10"/>
<text text-anchor="start" x="236.7812" y="-15.4" font-family="sans-serif" font-size="14.00" fill="#000000"> &#160;Bootstrap</text>
<polygon fill="#fdb462" stroke="transparent" points="310,-10 310,-30 330,-30 330,-10 310,-10"/>
<text text-anchor="start" x="333.6732" y="-15.4" font-family="sans-serif" font-size="14.00" fill="#000000"> &#160;Providers</text>
<polygon fill="#fb8072" stroke="transparent" points="406,-10 406,-30 426,-30 426,-10 406,-10"/>
<text text-anchor="start" x="429.7258" y="-15.4" font-family="sans-serif" font-size="14.00" fill="#000000"> &#160;Exports</text>
<g id="clust1" class="cluster">
<title>cluster_ErrorsModule</title>
<polygon fill="none" stroke="#000000" stroke-dasharray="1,5" points="82,-70 82,-268 414,-268 414,-70 82,-70"/>
</g>
<g id="clust2" class="cluster">
<title>cluster_ErrorsModule_declarations</title>
<polygon fill="none" stroke="#000000" points="90,-78 90,-130 406,-130 406,-78 90,-78"/>
</g>
<g id="clust6" class="cluster">
<title>cluster_ErrorsModule_exports</title>
<polygon fill="none" stroke="#000000" points="191,-208 191,-260 327,-260 327,-208 191,-208"/>
</g>
<!-- ErrorsComponent -->
<g id="node1" class="node">
<title>ErrorsComponent</title>
<polygon fill="#ffffb3" stroke="#000000" points="398.3118,-122 281.6882,-122 281.6882,-86 398.3118,-86 398.3118,-122"/>
<text text-anchor="middle" x="340" y="-99.8" font-family="Times,serif" font-size="14.00" fill="#000000">ErrorsComponent</text>
</g>
<!-- ErrorsModule -->
<g id="node3" class="node">
<title>ErrorsModule</title>
<polygon fill="#8dd3c7" stroke="#000000" points="306.03,-187 303.03,-191 282.03,-191 279.03,-187 211.97,-187 211.97,-151 306.03,-151 306.03,-187"/>
<text text-anchor="middle" x="259" y="-164.8" font-family="Times,serif" font-size="14.00" fill="#000000">ErrorsModule</text>
</g>
<!-- ErrorsComponent&#45;&gt;ErrorsModule -->
<g id="edge1" class="edge">
<title>ErrorsComponent&#45;&gt;ErrorsModule</title>
<path fill="none" stroke="#000000" d="M294.0544,-122.1061C294.0544,-122.1061 294.0544,-140.991 294.0544,-140.991"/>
<polygon fill="#000000" stroke="#000000" points="290.5544,-140.9909 294.0544,-150.991 297.5544,-140.991 290.5544,-140.9909"/>
</g>
<!-- PageNotFoundComponent -->
<g id="node2" class="node">
<title>PageNotFoundComponent</title>
<polygon fill="#ffffb3" stroke="#000000" points="263.8243,-122 98.1757,-122 98.1757,-86 263.8243,-86 263.8243,-122"/>
<text text-anchor="middle" x="181" y="-99.8" font-family="Times,serif" font-size="14.00" fill="#000000">PageNotFoundComponent</text>
</g>
<!-- PageNotFoundComponent&#45;&gt;ErrorsModule -->
<g id="edge2" class="edge">
<title>PageNotFoundComponent&#45;&gt;ErrorsModule</title>
<path fill="none" stroke="#000000" d="M237.6988,-122.1061C237.6988,-122.1061 237.6988,-140.991 237.6988,-140.991"/>
<polygon fill="#000000" stroke="#000000" points="234.1989,-140.9909 237.6988,-150.991 241.1989,-140.991 234.1989,-140.9909"/>
</g>
<!-- ErrorsComponent  -->
<g id="node4" class="node">
<title>ErrorsComponent </title>
<polygon fill="#fb8072" stroke="#000000" points="318.8115,-252 199.1885,-252 199.1885,-216 318.8115,-216 318.8115,-252"/>
<text text-anchor="middle" x="259" y="-229.8" font-family="Times,serif" font-size="14.00" fill="#000000">ErrorsComponent </text>
</g>
<!-- ErrorsModule&#45;&gt;ErrorsComponent  -->
<g id="edge3" class="edge">
<title>ErrorsModule&#45;&gt;ErrorsComponent </title>
<path fill="none" stroke="#000000" stroke-dasharray="5,2" d="M259,-187.1061C259,-187.1061 259,-205.991 259,-205.991"/>
<polygon fill="#000000" stroke="#000000" points="255.5001,-205.9909 259,-215.991 262.5001,-205.991 255.5001,-205.9909"/>
</g>
</g>
</svg>
