<?xml version="1.0" encoding="UTF-8" standalone="no"?>
<!DOCTYPE svg PUBLIC "-//W3C//DTD SVG 1.1//EN"
 "http://www.w3.org/Graphics/SVG/1.1/DTD/svg11.dtd">
<!-- Generated by graphviz version 2.40.1 (20161225.0304)
 -->
<!-- Title: dependencies Pages: 1 -->
<svg width="599pt" height="284pt"
 viewBox="0.00 0.00 599.00 284.00" xmlns="http://www.w3.org/2000/svg" xmlns:xlink="http://www.w3.org/1999/xlink">
<g id="graph0" class="graph" transform="scale(1 1) rotate(0) translate(4 280)">
<title>dependencies</title>
<polygon fill="#ffffff" stroke="transparent" points="-4,4 -4,-280 595,-280 595,4 -4,4"/>
<text text-anchor="start" x="274.5091" y="-42.4" font-family="sans-serif" font-weight="bold" font-size="14.00" fill="#000000">Legend</text>
<polygon fill="#ffffb3" stroke="transparent" points="61.5,-10 61.5,-30 81.5,-30 81.5,-10 61.5,-10"/>
<text text-anchor="start" x="85.129" y="-15.4" font-family="sans-serif" font-size="14.00" fill="#000000"> &#160;Declarations</text>
<polygon fill="#8dd3c7" stroke="transparent" points="174.5,-10 174.5,-30 194.5,-30 194.5,-10 174.5,-10"/>
<text text-anchor="start" x="198.2251" y="-15.4" font-family="sans-serif" font-size="14.00" fill="#000000"> &#160;Module</text>
<polygon fill="#80b1d3" stroke="transparent" points="260.5,-10 260.5,-30 280.5,-30 280.5,-10 260.5,-10"/>
<text text-anchor="start" x="284.2812" y="-15.4" font-family="sans-serif" font-size="14.00" fill="#000000"> &#160;Bootstrap</text>
<polygon fill="#fdb462" stroke="transparent" points="357.5,-10 357.5,-30 377.5,-30 377.5,-10 357.5,-10"/>
<text text-anchor="start" x="381.1732" y="-15.4" font-family="sans-serif" font-size="14.00" fill="#000000"> &#160;Providers</text>
<polygon fill="#fb8072" stroke="transparent" points="453.5,-10 453.5,-30 473.5,-30 473.5,-10 453.5,-10"/>
<text text-anchor="start" x="477.2258" y="-15.4" font-family="sans-serif" font-size="14.00" fill="#000000"> &#160;Exports</text>
<g id="clust1" class="cluster">
<title>cluster_PhysicalSecurityModule</title>
<polygon fill="none" stroke="#000000" stroke-dasharray="1,5" points="8,-70 8,-268 583,-268 583,-70 8,-70"/>
</g>
<g id="clust2" class="cluster">
<title>cluster_PhysicalSecurityModule_declarations</title>
<polygon fill="none" stroke="#000000" points="244,-78 244,-130 568,-130 568,-78 244,-78"/>
</g>
<g id="clust5" class="cluster">
<title>cluster_PhysicalSecurityModule_imports</title>
<polygon fill="none" stroke="#000000" points="22,-78 22,-130 236,-130 236,-78 22,-78"/>
</g>
<g id="clust6" class="cluster">
<title>cluster_PhysicalSecurityModule_exports</title>
<polygon fill="none" stroke="#000000" points="16,-208 16,-260 575,-260 575,-208 16,-208"/>
</g>
<!-- LoginComponent -->
<g id="node1" class="node">
<title>LoginComponent</title>
<polygon fill="#ffffb3" stroke="#000000" points="560.2758,-122 445.7242,-122 445.7242,-86 560.2758,-86 560.2758,-122"/>
<text text-anchor="middle" x="503" y="-99.8" font-family="Times,serif" font-size="14.00" fill="#000000">LoginComponent</text>
</g>
<!-- PhysicalSecurityModule -->
<g id="node3" class="node">
<title>PhysicalSecurityModule</title>
<polygon fill="#8dd3c7" stroke="#000000" points="416.6414,-187 413.6414,-191 392.6414,-191 389.6414,-187 263.3586,-187 263.3586,-151 416.6414,-151 416.6414,-187"/>
<text text-anchor="middle" x="340" y="-164.8" font-family="Times,serif" font-size="14.00" fill="#000000">PhysicalSecurityModule</text>
</g>
<!-- LoginComponent&#45;&gt;PhysicalSecurityModule -->
<g id="edge1" class="edge">
<title>LoginComponent&#45;&gt;PhysicalSecurityModule</title>
<path fill="none" stroke="#000000" d="M460.2237,-122.0225C460.2237,-139.3734 460.2237,-163 460.2237,-163 460.2237,-163 426.8202,-163 426.8202,-163"/>
<polygon fill="#000000" stroke="#000000" points="426.8202,-159.5001 416.8202,-163 426.8202,-166.5001 426.8202,-159.5001"/>
</g>
<!-- PhysicalSecurityComponent -->
<g id="node2" class="node">
<title>PhysicalSecurityComponent</title>
<polygon fill="#ffffb3" stroke="#000000" points="427.9241,-122 252.0759,-122 252.0759,-86 427.9241,-86 427.9241,-122"/>
<text text-anchor="middle" x="340" y="-99.8" font-family="Times,serif" font-size="14.00" fill="#000000">PhysicalSecurityComponent</text>
</g>
<!-- PhysicalSecurityComponent&#45;&gt;PhysicalSecurityModule -->
<g id="edge2" class="edge">
<title>PhysicalSecurityComponent&#45;&gt;PhysicalSecurityModule</title>
<path fill="none" stroke="#000000" d="M340,-122.1061C340,-122.1061 340,-140.991 340,-140.991"/>
<polygon fill="#000000" stroke="#000000" points="336.5001,-140.9909 340,-150.991 343.5001,-140.991 336.5001,-140.9909"/>
</g>
<!-- ErrorsModule  -->
<g id="node5" class="node">
<title>ErrorsModule </title>
<polygon fill="#fb8072" stroke="#000000" points="567.0288,-252 468.9712,-252 468.9712,-216 567.0288,-216 567.0288,-252"/>
<text text-anchor="middle" x="518" y="-229.8" font-family="Times,serif" font-size="14.00" fill="#000000">ErrorsModule </text>
</g>
<!-- PhysicalSecurityModule&#45;&gt;ErrorsModule  -->
<g id="edge4" class="edge">
<title>PhysicalSecurityModule&#45;&gt;ErrorsModule </title>
<path fill="none" stroke="#000000" stroke-dasharray="5,2" d="M416.8743,-175C463.7407,-175 514.6867,-175 514.6867,-175 514.6867,-175 514.6867,-205.9775 514.6867,-205.9775"/>
<polygon fill="#000000" stroke="#000000" points="511.1868,-205.9774 514.6867,-215.9775 518.1868,-205.9775 511.1868,-205.9774"/>
</g>
<!-- PhysicalSecurityComponent  -->
<g id="node6" class="node">
<title>PhysicalSecurityComponent </title>
<polygon fill="#fb8072" stroke="#000000" points="451.4236,-252 272.5764,-252 272.5764,-216 451.4236,-216 451.4236,-252"/>
<text text-anchor="middle" x="362" y="-229.8" font-family="Times,serif" font-size="14.00" fill="#000000">PhysicalSecurityComponent </text>
</g>
<!-- PhysicalSecurityModule&#45;&gt;PhysicalSecurityComponent  -->
<g id="edge5" class="edge">
<title>PhysicalSecurityModule&#45;&gt;PhysicalSecurityComponent </title>
<path fill="none" stroke="#000000" stroke-dasharray="5,2" d="M344.6794,-187.1061C344.6794,-187.1061 344.6794,-205.991 344.6794,-205.991"/>
<polygon fill="#000000" stroke="#000000" points="341.1794,-205.9909 344.6794,-215.991 348.1794,-205.991 341.1794,-205.9909"/>
</g>
<!-- ServicesModule  -->
<g id="node7" class="node">
<title>ServicesModule </title>
<polygon fill="#fb8072" stroke="#000000" points="254.473,-252 143.527,-252 143.527,-216 254.473,-216 254.473,-252"/>
<text text-anchor="middle" x="199" y="-229.8" font-family="Times,serif" font-size="14.00" fill="#000000">ServicesModule </text>
</g>
<!-- PhysicalSecurityModule&#45;&gt;ServicesModule  -->
<g id="edge6" class="edge">
<title>PhysicalSecurityModule&#45;&gt;ServicesModule </title>
<path fill="none" stroke="#000000" stroke-dasharray="5,2" d="M267.8589,-187.1061C267.8589,-206.3391 267.8589,-234 267.8589,-234 267.8589,-234 264.2546,-234 264.2546,-234"/>
<polygon fill="#000000" stroke="#000000" points="264.2546,-230.5001 254.2546,-234 264.2545,-237.5001 264.2546,-230.5001"/>
</g>
<!-- SharedModule  -->
<g id="node8" class="node">
<title>SharedModule </title>
<polygon fill="#fb8072" stroke="#000000" points="125.9222,-252 24.0778,-252 24.0778,-216 125.9222,-216 125.9222,-252"/>
<text text-anchor="middle" x="75" y="-229.8" font-family="Times,serif" font-size="14.00" fill="#000000">SharedModule </text>
</g>
<!-- PhysicalSecurityModule&#45;&gt;SharedModule  -->
<g id="edge7" class="edge">
<title>PhysicalSecurityModule&#45;&gt;SharedModule </title>
<path fill="none" stroke="#000000" stroke-dasharray="5,2" d="M263.1003,-175C185.7299,-175 77.7908,-175 77.7908,-175 77.7908,-175 77.7908,-205.9775 77.7908,-205.9775"/>
<polygon fill="#000000" stroke="#000000" points="74.2908,-205.9775 77.7909,-215.9775 81.2908,-205.9774 74.2908,-205.9775"/>
</g>
<!-- PhysicalSecurityRoutingModule -->
<g id="node4" class="node">
<title>PhysicalSecurityRoutingModule</title>
<polygon fill="#8dd3c7" stroke="#000000" points="228.2589,-122 225.2589,-126 204.2589,-126 201.2589,-122 29.7411,-122 29.7411,-86 228.2589,-86 228.2589,-122"/>
<text text-anchor="middle" x="129" y="-99.8" font-family="Times,serif" font-size="14.00" fill="#000000">PhysicalSecurityRoutingModule</text>
</g>
<!-- PhysicalSecurityRoutingModule&#45;&gt;PhysicalSecurityModule -->
<g id="edge3" class="edge">
<title>PhysicalSecurityRoutingModule&#45;&gt;PhysicalSecurityModule</title>
<path fill="none" stroke="#000000" d="M186.0717,-122.0225C186.0717,-139.3734 186.0717,-163 186.0717,-163 186.0717,-163 253.0359,-163 253.0359,-163"/>
<polygon fill="#000000" stroke="#000000" points="253.0359,-166.5001 263.0359,-163 253.0358,-159.5001 253.0359,-166.5001"/>
</g>
</g>
</svg>
