<?xml version="1.0" encoding="UTF-8" standalone="no"?>
<!DOCTYPE svg PUBLIC "-//W3C//DTD SVG 1.1//EN"
 "http://www.w3.org/Graphics/SVG/1.1/DTD/svg11.dtd">
<!-- Generated by graphviz version 2.40.1 (20161225.0304)
 -->
<!-- Title: dependencies Pages: 1 -->
<svg width="504pt" height="284pt"
 viewBox="0.00 0.00 504.00 284.00" xmlns="http://www.w3.org/2000/svg" xmlns:xlink="http://www.w3.org/1999/xlink">
<g id="graph0" class="graph" transform="scale(1 1) rotate(0) translate(4 280)">
<title>dependencies</title>
<polygon fill="#ffffff" stroke="transparent" points="-4,4 -4,-280 500,-280 500,4 -4,4"/>
<text text-anchor="start" x="227.0091" y="-42.4" font-family="sans-serif" font-weight="bold" font-size="14.00" fill="#000000">Legend</text>
<polygon fill="#ffffb3" stroke="transparent" points="14,-10 14,-30 34,-30 34,-10 14,-10"/>
<text text-anchor="start" x="37.629" y="-15.4" font-family="sans-serif" font-size="14.00" fill="#000000"> &#160;Declarations</text>
<polygon fill="#8dd3c7" stroke="transparent" points="127,-10 127,-30 147,-30 147,-10 127,-10"/>
<text text-anchor="start" x="150.7251" y="-15.4" font-family="sans-serif" font-size="14.00" fill="#000000"> &#160;Module</text>
<polygon fill="#80b1d3" stroke="transparent" points="213,-10 213,-30 233,-30 233,-10 213,-10"/>
<text text-anchor="start" x="236.7812" y="-15.4" font-family="sans-serif" font-size="14.00" fill="#000000"> &#160;Bootstrap</text>
<polygon fill="#fdb462" stroke="transparent" points="310,-10 310,-30 330,-30 330,-10 310,-10"/>
<text text-anchor="start" x="333.6732" y="-15.4" font-family="sans-serif" font-size="14.00" fill="#000000"> &#160;Providers</text>
<polygon fill="#fb8072" stroke="transparent" points="406,-10 406,-30 426,-30 426,-10 406,-10"/>
<text text-anchor="start" x="429.7258" y="-15.4" font-family="sans-serif" font-size="14.00" fill="#000000"> &#160;Exports</text>
<g id="clust1" class="cluster">
<title>cluster_SidenavModule</title>
<polygon fill="none" stroke="#000000" stroke-dasharray="1,5" points="106,-70 106,-268 390,-268 390,-70 106,-70"/>
</g>
<g id="clust2" class="cluster">
<title>cluster_SidenavModule_declarations</title>
<polygon fill="none" stroke="#000000" points="236,-78 236,-130 382,-130 382,-78 236,-78"/>
</g>
<g id="clust4" class="cluster">
<title>cluster_SidenavModule_imports</title>
<polygon fill="none" stroke="#000000" points="114,-78 114,-130 228,-130 228,-78 114,-78"/>
</g>
<g id="clust5" class="cluster">
<title>cluster_SidenavModule_exports</title>
<polygon fill="none" stroke="#000000" points="173,-208 173,-260 323,-260 323,-208 173,-208"/>
</g>
<!-- SideNavComponent -->
<g id="node1" class="node">
<title>SideNavComponent</title>
<polygon fill="#ffffb3" stroke="#000000" points="373.5422,-122 244.4578,-122 244.4578,-86 373.5422,-86 373.5422,-122"/>
<text text-anchor="middle" x="309" y="-99.8" font-family="Times,serif" font-size="14.00" fill="#000000">SideNavComponent</text>
</g>
<!-- SidenavModule -->
<g id="node2" class="node">
<title>SidenavModule</title>
<polygon fill="#8dd3c7" stroke="#000000" points="300.1528,-187 297.1528,-191 276.1528,-191 273.1528,-187 195.8472,-187 195.8472,-151 300.1528,-151 300.1528,-187"/>
<text text-anchor="middle" x="248" y="-164.8" font-family="Times,serif" font-size="14.00" fill="#000000">SidenavModule</text>
</g>
<!-- SideNavComponent&#45;&gt;SidenavModule -->
<g id="edge1" class="edge">
<title>SideNavComponent&#45;&gt;SidenavModule</title>
<path fill="none" stroke="#000000" d="M272.2777,-122.1061C272.2777,-122.1061 272.2777,-140.991 272.2777,-140.991"/>
<polygon fill="#000000" stroke="#000000" points="268.7778,-140.9909 272.2777,-150.991 275.7778,-140.991 268.7778,-140.9909"/>
</g>
<!-- SideNavComponent  -->
<g id="node4" class="node">
<title>SideNavComponent </title>
<polygon fill="#fb8072" stroke="#000000" points="314.5414,-252 181.4586,-252 181.4586,-216 314.5414,-216 314.5414,-252"/>
<text text-anchor="middle" x="248" y="-229.8" font-family="Times,serif" font-size="14.00" fill="#000000">SideNavComponent </text>
</g>
<!-- SidenavModule&#45;&gt;SideNavComponent  -->
<g id="edge3" class="edge">
<title>SidenavModule&#45;&gt;SideNavComponent </title>
<path fill="none" stroke="#000000" stroke-dasharray="5,2" d="M248,-187.1061C248,-187.1061 248,-205.991 248,-205.991"/>
<polygon fill="#000000" stroke="#000000" points="244.5001,-205.9909 248,-215.991 251.5001,-205.991 244.5001,-205.9909"/>
</g>
<!-- SharedModule -->
<g id="node3" class="node">
<title>SharedModule</title>
<polygon fill="#8dd3c7" stroke="#000000" points="220.4231,-122 217.4231,-126 196.4231,-126 193.4231,-122 121.5769,-122 121.5769,-86 220.4231,-86 220.4231,-122"/>
<text text-anchor="middle" x="171" y="-99.8" font-family="Times,serif" font-size="14.00" fill="#000000">SharedModule</text>
</g>
<!-- SharedModule&#45;&gt;SidenavModule -->
<g id="edge2" class="edge">
<title>SharedModule&#45;&gt;SidenavModule</title>
<path fill="none" stroke="#000000" d="M207.9425,-122.1061C207.9425,-122.1061 207.9425,-140.991 207.9425,-140.991"/>
<polygon fill="#000000" stroke="#000000" points="204.4426,-140.9909 207.9425,-150.991 211.4426,-140.991 204.4426,-140.9909"/>
</g>
</g>
</svg>
